<svg width="1928" height="1416" viewBox="0 0 1928 1416" fill="none" xmlns="http://www.w3.org/2000/svg">
<g filter="url(#filter0_d_106_3)">
<rect x="4" y="167" width="1920" height="1080" fill="white"/>
<rect x="4.5" y="167.5" width="1919" height="1079" stroke="black"/>
<path d="M62 200H1866V1217L62 1203.94V200Z" fill="#01620B"/>
</g>
<path d="M39.5 173.5L1834.5 229.5L1879.5 1223.5H39.5V173.5Z" fill="#FCFFFC"/>
<g style="mix-blend-mode:darken">
<path d="M1075 168L58.9164 508.567L3.99983 168L1075 168Z" fill="#01620B"/>
</g>
<path d="M977.5 162.156L97.8719 453.192L46 162.156L977.5 162.156Z" fill="white"/>
<g style="mix-blend-mode:darken">
<path d="M893 163.5L122.417 408.149L79.5002 163.5L893 163.5Z" fill="#35261F"/>
</g>
<path d="M760 165.5L161.057 354.5L130.5 165.5L760 165.5Z" fill="white"/>
<g style="mix-blend-mode:darken">
<path d="M669 163.5L192.396 313.928L168 163.5L669 163.5Z" fill="#01620B"/>
</g>
<g style="mix-blend-mode:darken">
<path d="M853.029 1248.12L1868.6 906.037L1924.03 1246.52L853.029 1248.12Z" fill="#01620B"/>
</g>
<path d="M956.585 1242.87L1837.63 956.152L1888.07 1247.44L956.585 1242.87Z" fill="white"/>
<g style="mix-blend-mode:darken">
<path d="M1034.94 1247.3L1805.5 1002.57L1848.44 1247.21L1034.94 1247.3Z" fill="#35261F"/>
</g>
<path d="M1161.5 1246.96L1765.35 1058.34L1798.15 1246.96L1161.5 1246.96Z" fill="white"/>
<g style="mix-blend-mode:darken">
<path d="M1258.65 1248.04L1735.08 1097.04L1759.65 1247.44L1258.65 1248.04Z" fill="#01620B"/>
</g>
<defs>
<filter id="filter0_d_106_3" x="0" y="167" width="1928" height="1088" filterUnits="userSpaceOnUse" color-interpolation-filters="sRGB">
<feFlood flood-opacity="0" result="BackgroundImageFix"/>
<feColorMatrix in="SourceAlpha" type="matrix" values="0 0 0 0 0 0 0 0 0 0 0 0 0 0 0 0 0 0 127 0" result="hardAlpha"/>
<feOffset dy="4"/>
<feGaussianBlur stdDeviation="2"/>
<feComposite in2="hardAlpha" operator="out"/>
<feColorMatrix type="matrix" values="0 0 0 0 0 0 0 0 0 0 0 0 0 0 0 0 0 0 0.25 0"/>
<feBlend mode="normal" in2="BackgroundImageFix" result="effect1_dropShadow_106_3"/>
<feBlend mode="normal" in="SourceGraphic" in2="effect1_dropShadow_106_3" result="shape"/>
</filter>
</defs>
</svg>
