<svg width="73" height="61" viewBox="0 0 73 61" fill="none" xmlns="http://www.w3.org/2000/svg">
<path d="M0 42.6555L19.0291 32.8014V35.6454L2.99372 43.7283V43.8114L19.0291 51.8943V54.7383L0 44.8841V42.6555Z" fill="white"/>
<path d="M37.3096 56.389L48.751 26.494H51.538L40.0552 56.389H37.3096Z" fill="white"/>
<path d="M71.2332 44.9257L52.2041 54.7383V51.8943L68.3594 43.8114V43.7283L52.2041 35.6454V32.8014L71.2332 42.6139V44.9257Z" fill="white"/>
<path d="M1.26123 41.8115L20.2904 31.9574V34.8013L4.25495 42.8842V42.9674L20.2904 51.0503V53.8942L1.26123 44.036V41.8115Z" fill="white"/>
<path d="M38.5752 55.5408L50.0167 25.6458H52.8036L41.3208 55.5408H38.5752Z" fill="white"/>
<path d="M72.4945 44.0775L53.4653 53.8901V51.0461L69.6207 42.9632V42.8801L53.4653 34.8013V31.9574L72.4945 41.7699V44.0775Z" fill="white"/>
<path d="M55.8057 10.4862C55.6238 10.3406 55.5659 10.1951 55.6031 9.94979C55.6982 9.31364 55.6982 8.66501 55.5865 8.0247C55.508 7.5715 55.446 7.11829 55.3219 6.67756C55.1441 6.0414 54.8919 5.4302 54.5569 4.85641C54.1062 4.07889 53.5563 3.38453 52.8988 2.77748C52.1917 2.12885 51.4102 1.58833 50.5088 1.24739C50.0292 1.06444 49.5454 0.869021 49.0492 0.752601C48.4827 0.627865 47.9038 0.586286 47.4696 0.528076C46.593 0.561339 45.8694 0.627865 45.154 0.798337C44.2195 1.02286 43.3636 1.4137 42.5614 1.92512C41.7303 2.45732 41.0025 3.12258 40.4154 3.92921C40.3161 4.07058 40.2169 4.12879 40.0349 4.12047C39.2658 4.07473 38.6167 4.3242 38.1783 4.98946C37.7897 5.56325 37.74 6.17861 37.9592 6.8314C38.0956 7.22639 38.352 7.50913 38.6539 7.77939C38.7118 7.83344 38.7531 7.9457 38.749 8.0247C38.6663 8.95191 38.658 9.87079 38.8523 10.7814C39.1873 12.3489 39.8861 13.7334 40.986 14.906C41.6765 15.6461 42.4746 16.2406 43.376 16.698C43.9259 16.9724 44.4883 17.1762 45.0796 17.3342C46.1836 17.6335 47.2959 17.6751 48.4165 17.5088C48.9086 17.4339 49.3965 17.2843 49.8762 17.1387C50.6783 16.9059 51.3978 16.5067 52.076 16.0286C52.783 15.5338 53.3992 14.9351 53.916 14.2449C54.0401 14.0786 54.16 14.0079 54.375 14.0287C55.2516 14.1035 56.0125 13.6337 56.3639 12.8312C56.703 12.037 56.5211 11.0475 55.8057 10.4862ZM55.293 12.3572C55.0821 12.7979 54.5487 12.9975 54.1434 12.7813C54.0483 12.7272 53.9491 12.694 53.854 12.6358C53.701 12.5401 53.6183 12.5984 53.5232 12.7356C53.2627 13.1264 53.0063 13.5172 52.7086 13.8748C52.2662 14.4153 51.7204 14.8519 51.1415 15.2428C50.6535 15.5671 50.1284 15.8207 49.5826 16.012C49.0698 16.1949 48.5364 16.303 47.9948 16.3737C46.8535 16.5317 45.7619 16.3612 44.6909 15.9912C43.9756 15.7375 43.3098 15.3633 42.702 14.8977C41.9494 14.3072 41.3333 13.6046 40.8495 12.7855C40.4774 12.1451 40.2045 11.4591 40.0349 10.7356C39.8985 10.1452 39.853 9.55064 39.8571 8.96022C39.8613 8.38228 39.9316 7.80434 40.0763 7.23887C40.0887 7.19729 40.0391 7.10166 39.9936 7.08087C39.853 7.01434 39.7 6.97692 39.5553 6.92287C39.0839 6.74824 38.8606 6.23266 39.0632 5.77114C39.2369 5.3803 39.7414 5.13083 40.221 5.3803C40.3657 5.45514 40.5229 5.51751 40.6965 5.59651C40.8702 5.33457 41.0191 5.07678 41.1886 4.83978C41.9991 3.70884 43.0411 2.87311 44.3105 2.31596C44.9225 2.0457 45.5675 1.89186 46.225 1.78375C46.9817 1.66317 47.7384 1.69228 48.4785 1.82533C49.1525 1.94591 49.8017 2.16212 50.4137 2.47396C51.5012 3.02279 52.4068 3.78368 53.118 4.77325C53.5687 5.40109 53.9078 6.07882 54.1434 6.80645C54.3254 7.36776 54.4536 7.94155 54.4825 8.53612C54.5239 9.30532 54.4825 10.0662 54.2923 10.8188C54.2386 11.0308 54.2882 11.089 54.5073 11.1389C54.6231 11.1639 54.7389 11.2013 54.8464 11.2429C55.264 11.4092 55.479 11.958 55.293 12.3572Z" fill="white"/>
<path d="M54.8424 11.2429C54.7308 11.2013 54.6191 11.1639 54.5034 11.139C54.2842 11.0849 54.2387 11.0267 54.2883 10.8188C54.4786 10.0662 54.5199 9.30534 54.4786 8.53613C54.4455 7.94156 54.3214 7.36777 54.1395 6.80646C53.9038 6.07468 53.5647 5.39695 53.114 4.77327C52.4028 3.7837 51.4972 3.02281 50.4097 2.47397C49.7978 2.16213 49.1486 1.95008 48.4746 1.82534C47.7303 1.69229 46.9777 1.66319 46.221 1.78376C45.5636 1.88771 44.9185 2.04571 44.3065 2.31597C43.0371 2.87312 41.9951 3.70885 41.1846 4.83979C41.0192 5.07679 40.8662 5.33458 40.6926 5.59652C40.5189 5.51752 40.3618 5.45516 40.2171 5.38032C39.7415 5.12669 39.2329 5.38031 39.0593 5.77115C38.8566 6.23268 39.0799 6.74825 39.5513 6.92288C39.696 6.97693 39.849 7.01435 39.9896 7.08088C40.0351 7.10167 40.0847 7.1973 40.0723 7.23888C39.9276 7.80019 39.8573 8.37813 39.8532 8.96023C39.849 9.55481 39.8945 10.1494 40.031 10.7356C40.2046 11.4633 40.4776 12.1452 40.8456 12.7855C41.3252 13.6046 41.9455 14.3114 42.698 14.8977C43.3059 15.3675 43.9675 15.7375 44.687 15.9912C45.7579 16.3654 46.8537 16.5317 47.9908 16.3737C48.5366 16.2989 49.07 16.1949 49.5786 16.012C50.1244 15.8207 50.6496 15.5712 51.1375 15.2428C51.7164 14.8519 52.2622 14.4153 52.7047 13.8748C53.0024 13.5173 53.2587 13.1223 53.5192 12.7356C53.6143 12.5984 53.697 12.5402 53.85 12.6358C53.9451 12.694 54.0444 12.7314 54.1395 12.7813C54.5488 12.9975 55.0823 12.7979 55.289 12.3572C55.4792 11.9581 55.2642 11.4092 54.8424 11.2429ZM45.2989 7.48003C45.8158 7.4634 46.1879 7.9374 46.1425 8.3324C46.1383 8.83134 45.7869 9.15149 45.2534 9.15149C44.7779 9.15565 44.4389 8.71908 44.4595 8.32408C44.4802 7.85008 44.7655 7.49251 45.2989 7.48003ZM48.7144 13.38C48.2058 13.5838 47.6724 13.6545 47.2134 13.6919C46.556 13.6669 45.8365 13.5547 45.0963 13.1805C44.2321 12.7397 43.5912 12.0869 43.157 11.2263C43.033 10.9851 43.0412 10.981 43.2687 10.8562C43.6367 10.6608 43.6201 10.665 43.8351 11.0308C44.6208 12.3198 45.7496 12.9975 47.2713 12.9643C47.66 12.9518 48.0363 12.8977 48.396 12.748C48.5366 12.6898 48.6607 12.694 48.7061 12.8894C48.7227 12.985 48.7682 13.0724 48.8178 13.1555C48.8633 13.2761 48.8178 13.3385 48.7144 13.38ZM49.4835 10.8354C49.0907 10.8936 48.6317 10.4903 48.6317 10.0413C48.6317 9.47165 48.9832 9.17228 49.4794 9.13486C49.8929 9.1016 50.294 9.50491 50.3064 9.92486C50.3229 10.4529 49.988 10.823 49.4835 10.8354Z" fill="white"/>
<path d="M48.7144 13.3801C48.2058 13.5838 47.6724 13.6545 47.2134 13.6919C46.556 13.6669 45.8365 13.5547 45.0963 13.1805C44.2321 12.7397 43.5912 12.087 43.157 11.2263C43.033 10.9851 43.0412 10.981 43.2687 10.8562C43.6367 10.6608 43.6201 10.665 43.8352 11.0309C44.6208 12.3198 45.7496 12.9975 47.2713 12.9643C47.66 12.9518 48.0363 12.8977 48.396 12.7481C48.5366 12.6898 48.6607 12.694 48.7062 12.8894C48.7227 12.9851 48.7682 13.0724 48.8178 13.1555C48.8633 13.2761 48.8178 13.3385 48.7144 13.3801Z" fill="white"/>
<path d="M50.3021 9.92905C50.3228 10.4529 49.9879 10.823 49.4792 10.8396C49.0864 10.8978 48.6274 10.4945 48.6274 10.0455C48.6274 9.47585 48.9789 9.17648 49.4751 9.13906C49.8886 9.1058 50.2938 9.50495 50.3021 9.92905Z" fill="white"/>
<path d="M46.1379 8.33237C46.1338 8.83131 45.7823 9.15147 45.2489 9.15147C44.7734 9.15562 44.4343 8.71905 44.455 8.32405C44.4798 7.8459 44.7651 7.48832 45.2985 7.47585C45.8154 7.46753 46.1875 7.93737 46.1379 8.33237Z" fill="white"/>
<path d="M54.7593 9.95811C54.5774 9.81259 54.5195 9.66706 54.5567 9.42175C54.6518 8.78559 54.6518 8.13697 54.5402 7.49666C54.4616 7.04345 54.3996 6.59024 54.2755 6.14951C54.0977 5.51336 53.8455 4.90215 53.5106 4.32837C53.0599 3.55085 52.5099 2.85648 51.8524 2.24943C51.1454 1.60081 50.3639 1.06029 49.4624 0.719341C48.9828 0.536395 48.499 0.340975 48.0028 0.224555C47.4363 0.0998192 46.8574 0.0582406 46.4232 3.05176e-05C45.5466 0.0332934 44.823 0.0998192 44.1076 0.270292C43.1731 0.494816 42.3172 0.885655 41.515 1.39707C40.6839 1.92928 39.9561 2.59454 39.369 3.40116C39.2697 3.54253 39.1705 3.60074 38.9886 3.59242C38.2195 3.54669 37.5703 3.79616 37.132 4.46142C36.7433 5.0352 36.6937 5.65057 36.9128 6.30335C37.0493 6.69835 37.3056 6.98108 37.6075 7.25134C37.6654 7.3054 37.7067 7.41766 37.7026 7.49666C37.6199 8.42386 37.6116 9.34275 37.806 10.2533C38.1409 11.8208 38.8397 13.2054 39.9396 14.3779C40.6301 15.118 41.4282 15.7126 42.3296 16.17C42.8796 16.4444 43.4419 16.6481 44.0332 16.8061C45.1373 17.1055 46.2496 17.1471 47.3701 16.9807C47.8622 16.9059 48.3501 16.7562 48.8298 16.6107C49.632 16.3778 50.3514 15.9787 51.0296 15.5005C51.7367 15.0058 52.3528 14.407 52.8696 13.7168C52.9937 13.5505 53.1136 13.4798 53.3286 13.5006C54.2052 13.5755 54.9661 13.1056 55.3175 12.3031C55.6566 11.509 55.4747 10.5194 54.7593 9.95811ZM54.2466 11.8292C54.0357 12.2699 53.5023 12.4695 53.0971 12.2533C53.002 12.1992 52.9027 12.1659 52.8076 12.1077C52.6546 12.0121 52.5719 12.0703 52.4768 12.2075C52.2163 12.5984 51.96 12.9892 51.6622 13.3468C51.2198 13.8873 50.674 14.3239 50.0951 14.7147C49.6072 15.039 49.082 15.2926 48.5362 15.4839C48.0235 15.6669 47.4901 15.775 46.9484 15.8456C45.8071 16.0036 44.7155 15.8332 43.6445 15.4631C42.9292 15.2095 42.2635 14.8353 41.6556 14.3696C40.903 13.7792 40.2869 13.0765 39.8031 12.2574C39.431 11.6171 39.1581 10.9311 38.9886 10.2076C38.8521 9.61717 38.8066 9.02259 38.8108 8.43218C38.8149 7.85423 38.8852 7.27629 39.0299 6.71082C39.0423 6.66924 38.9927 6.57361 38.9472 6.55282C38.8066 6.4863 38.6536 6.44888 38.5089 6.39482C38.0375 6.22019 37.8142 5.70462 38.0168 5.2431C38.1905 4.85226 38.695 4.60278 39.1746 4.85226C39.3194 4.9271 39.4765 4.98947 39.6502 5.06847C39.8238 4.80652 39.9727 4.54873 40.1422 4.31173C40.9527 3.1808 41.9947 2.34507 43.2641 1.78791C43.8761 1.51765 44.5211 1.36381 45.1786 1.2557C45.9353 1.13513 46.692 1.16423 47.4322 1.29728C48.1062 1.41786 48.7554 1.63407 49.3673 1.94591C50.4548 2.49475 51.3604 3.25564 52.0716 4.24521C52.5223 4.87305 52.8614 5.55078 53.0971 6.2784C53.279 6.83972 53.4072 7.4135 53.4361 8.00807C53.4775 8.77728 53.4361 9.53817 53.2459 10.2907C53.1922 10.5028 53.2418 10.561 53.4609 10.6109C53.5767 10.6358 53.6925 10.6733 53.8 10.7148C54.2176 10.8853 54.4327 11.43 54.2466 11.8292Z" fill="white"/>
<path d="M53.796 10.7149C53.6844 10.6733 53.5728 10.6359 53.457 10.6109C53.2378 10.5569 53.1923 10.4986 53.242 10.2908C53.4322 9.53818 53.4735 8.77729 53.4322 8.00809C53.3991 7.41351 53.275 6.83973 53.0931 6.27842C52.8574 5.54663 52.5183 4.8689 52.0676 4.24522C51.3564 3.25565 50.4509 2.49476 49.3634 1.94592C48.7514 1.63408 48.1022 1.42203 47.4282 1.2973C46.6839 1.16425 45.9313 1.13514 45.1746 1.25572C44.5172 1.35967 43.8721 1.51766 43.2601 1.78793C41.9907 2.34508 40.9487 3.18081 40.1382 4.31175C39.9728 4.54875 39.8199 4.80653 39.6462 5.06848C39.4725 4.98948 39.3154 4.92711 39.1707 4.85227C38.6951 4.59864 38.1865 4.85227 38.0129 5.24311C37.8103 5.70463 38.0335 6.22021 38.5049 6.39484C38.6497 6.44889 38.8027 6.48631 38.9432 6.55283C38.9887 6.57362 39.0383 6.66925 39.0259 6.71083C38.8812 7.27214 38.8109 7.85009 38.8068 8.43219C38.8026 9.02676 38.8481 9.62134 38.9846 10.2076C39.1583 10.9352 39.4312 11.6171 39.7992 12.2574C40.2788 13.0765 40.8991 13.7834 41.6516 14.3696C42.2595 14.8395 42.9211 15.2095 43.6406 15.4631C44.7115 15.8373 45.8073 16.0037 46.9444 15.8457C47.4902 15.7708 48.0236 15.6669 48.5322 15.4839C49.078 15.2927 49.6032 15.0432 50.0911 14.7147C50.67 14.3239 51.2158 13.8873 51.6583 13.3468C51.956 12.9892 52.2124 12.5942 52.4729 12.2075C52.568 12.0703 52.6507 12.0121 52.8037 12.1077C52.8988 12.1659 52.998 12.2034 53.0931 12.2533C53.5025 12.4695 54.0359 12.2699 54.2426 11.8292C54.4328 11.43 54.2178 10.8853 53.796 10.7149ZM44.2525 6.95615C44.7694 6.93952 45.1416 7.41351 45.0961 7.80851C45.0919 8.30745 44.7405 8.62761 44.2071 8.62761C43.7315 8.63177 43.3925 8.19519 43.4131 7.80019C43.4379 7.32204 43.7191 6.96446 44.2525 6.95615ZM47.668 12.8562C47.1594 13.0599 46.626 13.1306 46.167 13.168C45.5096 13.143 44.7901 13.0308 44.0499 12.6566C43.1857 12.2158 42.5448 11.5631 42.1106 10.7024C41.9866 10.4612 41.9948 10.4571 42.2223 10.3323C42.5903 10.1369 42.5737 10.1411 42.7888 10.507C43.5744 11.7959 44.7033 12.4736 46.2249 12.4404C46.6136 12.4279 46.9899 12.3738 47.3496 12.2242C47.4902 12.1659 47.6143 12.1701 47.6598 12.3655C47.6763 12.4612 47.7218 12.5485 47.7714 12.6316C47.8169 12.7522 47.7714 12.8146 47.668 12.8562ZM48.4371 10.3115C48.0443 10.3698 47.5853 9.96644 47.5853 9.51739C47.5853 8.94776 47.9368 8.6484 48.433 8.61098C48.8465 8.57771 49.2476 8.98103 49.26 9.40097C49.2765 9.92902 48.9416 10.2949 48.4371 10.3115Z" fill="white"/>
<path d="M47.668 12.8562C47.1594 13.0599 46.626 13.1306 46.167 13.168C45.5096 13.1431 44.7901 13.0308 44.0499 12.6566C43.1857 12.2159 42.5448 11.5631 42.1106 10.7024C41.9866 10.4613 41.9949 10.4571 42.2223 10.3324C42.5903 10.1369 42.5738 10.1411 42.7888 10.507C43.5744 11.7959 44.7033 12.4737 46.2249 12.4404C46.6136 12.4279 46.9899 12.3739 47.3496 12.2242C47.4902 12.166 47.6143 12.1701 47.6598 12.3656C47.6763 12.4612 47.7218 12.5485 47.7714 12.6317C47.8169 12.7522 47.7714 12.8146 47.668 12.8562Z" fill="white"/>
<path d="M49.2557 9.40099C49.2764 9.92488 48.9415 10.2949 48.4329 10.3116C48.04 10.3698 47.5811 9.96646 47.5811 9.51741C47.5811 8.94778 47.9325 8.64842 48.4287 8.611C48.8422 8.58189 49.2474 8.98105 49.2557 9.40099Z" fill="white"/>
<path d="M45.0915 7.80851C45.0874 8.30746 44.7359 8.62761 44.2025 8.62761C43.727 8.63177 43.3879 8.19519 43.4086 7.8002C43.4334 7.32204 43.7187 6.96447 44.2521 6.95199C44.769 6.93952 45.1412 7.41352 45.0915 7.80851Z" fill="white"/>
<path d="M44.3973 19.8663C44.5297 19.9037 44.662 19.9328 44.7984 19.9661L41.3085 30.3399C39.485 35.7285 37.6491 41.113 35.8173 46.5057C34.7174 49.7488 33.572 52.9795 32.5548 56.2517C31.9635 58.156 30.9752 59.5489 28.9615 60.0105C28.1883 60.1892 27.3985 60.077 26.6128 60.0853C23.6026 60.0978 21.6468 57.3286 22.6102 54.4514C23.6109 51.4702 24.6239 48.4932 25.6205 45.5161C26.4309 43.0963 27.2207 40.6722 28.0311 38.2524C29.1517 34.9094 30.3219 31.5915 31.3722 28.2236C32.0173 26.1571 31.0331 23.9493 29.3213 22.7768C28.3123 22.0866 27.1876 21.8829 26.0091 21.8829C23.462 21.8787 20.9149 21.8829 18.3636 21.8787C17.6482 21.8787 16.966 21.7207 16.3333 21.3382C14.0632 19.9661 13.9309 17.2219 14.7165 14.9434C15.3616 13.0765 16.9825 12.4154 18.8598 12.4029C20.9562 12.3863 23.0526 12.4029 25.1449 12.3988L35.6932 12.3821C36.206 13.7958 36.9916 15.064 38.0212 16.17C38.9102 17.1221 39.9564 17.9121 41.1597 18.5191C41.3209 18.5981 41.4905 18.6605 41.6517 18.7354C41.8337 18.8393 42.0197 18.9516 42.2058 19.0472C42.8963 19.3881 43.62 19.6542 44.3973 19.8663Z" fill="white"/>
<path d="M46.6841 13.6503C46.589 13.6378 46.4939 13.6253 46.4029 13.6087C46.3285 13.5962 46.2582 13.5837 46.1838 13.5671C45.8323 13.4881 45.4684 13.3717 45.0963 13.1846C45.0095 13.1388 44.9226 13.089 44.8399 13.0432C44.7655 13.0016 44.6952 12.9559 44.6208 12.906C44.6084 12.9018 44.6042 12.8935 44.6001 12.8894C44.7407 12.9351 44.873 12.9767 45.0095 13.01C45.0963 13.0349 45.1873 13.0515 45.27 13.0682C45.3816 13.089 45.4891 13.1056 45.6008 13.1222C45.6628 13.1347 45.7331 13.1388 45.7951 13.143C45.9191 13.1596 46.0473 13.1638 46.1714 13.168C46.2706 13.1555 46.374 13.1513 46.4815 13.1347C46.5725 13.2927 46.6428 13.4673 46.6841 13.6503Z" fill="white"/>
<path d="M44.695 12.0828C44.6165 12.0163 44.542 11.9456 44.4759 11.8708C44.4139 11.8126 44.356 11.7461 44.2939 11.6754C44.2154 11.5839 44.141 11.4924 44.0707 11.3926H43.4794C43.7936 11.7086 44.1451 11.9498 44.5338 12.1244C44.5958 12.1494 44.6578 12.1785 44.724 12.1993C44.7901 12.2242 44.8604 12.245 44.9266 12.2658C44.848 12.2076 44.7695 12.1452 44.695 12.0828ZM44.9266 12.2658C44.9266 12.2658 44.9266 12.2699 44.9307 12.2699C44.9638 12.2824 44.9928 12.2866 45.0258 12.2949C44.9928 12.2866 44.9597 12.2783 44.9266 12.2658ZM45.7908 20.1408C45.4559 20.0992 45.1251 20.041 44.8025 19.9662L41.3085 30.34C39.485 35.7286 37.6491 41.113 35.8173 46.5058C34.7174 49.7489 33.572 52.9796 32.5548 56.2518C31.9635 58.1561 30.9752 59.549 28.9615 60.0105C28.1882 60.1893 27.3985 60.0771 26.6128 60.0854C23.6026 60.0979 21.6467 57.3287 22.6102 54.4515C23.6108 51.4703 24.6239 48.4933 25.6204 45.5162C26.4309 43.0963 27.2207 40.6723 28.0311 38.2524C29.1517 34.9095 30.3219 31.5915 31.3722 28.2237C32.0172 26.1572 31.0331 23.9494 29.3212 22.7769C28.3123 22.0867 27.1876 21.8829 26.0091 21.8829C23.462 21.8788 20.9148 21.8829 18.3636 21.8788C17.6482 21.8788 16.9659 21.7208 16.3333 21.3382C14.0632 19.9662 13.9309 17.222 14.7165 14.9435C15.3616 13.0766 16.9825 12.4155 18.8598 12.403C20.9562 12.3864 23.0526 12.403 25.1449 12.3988L35.6932 12.3822C35.5733 12.0621 35.4741 11.7336 35.3831 11.3968L18.6075 11.401C16.3002 11.4176 14.4436 12.7107 13.6745 14.7356C13.3354 15.6295 13.3644 16.565 13.3644 17.4964C13.3768 20.4526 15.0804 22.4484 17.9873 22.8974C20.8652 22.8933 23.7432 22.8309 26.6211 22.885C29.313 22.939 31.2771 25.6458 30.3343 28.4232C28.9863 32.394 27.6548 36.3731 26.3192 40.348C24.9175 44.5059 23.5157 48.6679 22.1098 52.8216C21.9982 53.1542 21.9651 53.5201 21.6757 53.7737C21.6012 54.1646 21.5351 54.5637 21.4565 54.9504C20.9645 57.3744 22.3414 59.8317 24.6363 60.6966C25.8437 61.1498 27.0801 60.9544 28.3082 60.971C30.5328 61.0043 32.3811 59.6945 33.0923 57.5907C36.1935 48.4517 39.2782 39.3127 42.3753 30.1737C43.0411 28.2112 43.6241 26.2237 44.4097 24.3111L44.3932 24.3278C44.509 23.9951 45.0879 22.253 45.7908 20.1408Z" fill="white"/>
<path d="M17.9995 22.9017C20.8774 22.8933 23.7554 22.8351 26.6333 22.8892C29.3252 22.9432 31.2893 25.6542 30.3465 28.4275C28.9985 32.3982 27.6712 36.3773 26.3315 40.3522C24.9297 44.5101 23.528 48.6679 22.1221 52.8258C22.0104 53.1543 21.9774 53.5243 21.6879 53.7738C21.63 52.356 22.1179 51.0462 22.5521 49.749C24.4831 43.9862 26.4762 38.2442 28.4114 32.4855C29.0192 30.681 29.6105 28.8724 29.8627 26.9681C30.0033 25.8912 29.6105 24.8974 28.7091 24.3237C27.9276 23.8247 27.0675 23.5836 26.1454 23.5794C24.5038 23.5752 22.8581 23.6334 21.2207 23.5586C20.1249 23.5087 18.9795 23.5669 17.9995 22.9017Z" fill="white"/>
</svg>
